<svg xmlns="http://www.w3.org/2000/svg" version="1.1" xmlns:xlink="http://www.w3.org/1999/xlink" xmlns:svgjs="http://svgjs.dev/svgjs" width="1440" height="560" preserveAspectRatio="none" viewBox="0 0 1440 560"><g mask="url(&quot;#SvgjsMask1002&quot;)" fill="none"><rect width="1440" height="560" x="0" y="0" fill="url(&quot;#SvgjsLinearGradient1003&quot;)"></rect><path d="M1440 0L936.8299999999999 0L1440 101.93z" fill="rgba(255, 255, 255, .1)"></path><path d="M936.8299999999999 0L1440 101.93L1440 205.16000000000003L861.4999999999999 0z" fill="rgba(255, 255, 255, .075)"></path><path d="M861.5 0L1440 205.16000000000003L1440 236.61L849.77 0z" fill="rgba(255, 255, 255, .05)"></path><path d="M849.77 0L1440 236.61L1440 335.84000000000003L344.78 0z" fill="rgba(255, 255, 255, .025)"></path><path d="M0 560L593.05 560L0 415.9z" fill="rgba(0, 0, 0, .1)"></path><path d="M0 415.9L593.05 560L958.68 560L0 203.09999999999997z" fill="rgba(0, 0, 0, .075)"></path><path d="M0 203.10000000000002L958.68 560L1204.24 560L0 106.45000000000002z" fill="rgba(0, 0, 0, .05)"></path><path d="M0 106.45000000000005L1204.24 560L1277.14 560L0 62.15000000000005z" fill="rgba(0, 0, 0, .025)"></path></g><defs><mask id="SvgjsMask1002"><rect width="1440" height="560" fill="#ffffff"></rect></mask><linearGradient x1="15.28%" y1="-39.29%" x2="84.72%" y2="139.29%" gradientUnits="userSpaceOnUse" id="SvgjsLinearGradient1003"><stop stop-color="#0e2a47" offset="0"></stop><stop stop-color="#00459e" offset="1"></stop></linearGradient></defs></svg>