<svg xmlns="http://www.w3.org/2000/svg" version="1.1" xmlns:xlink="http://www.w3.org/1999/xlink" xmlns:svgjs="http://svgjs.dev/svgjs" width="1440" height="560" preserveAspectRatio="none" viewBox="0 0 1440 560"><g mask="url(&quot;#SvgjsMask5518&quot;)" fill="none"><rect width="1440" height="560" x="0" y="0" fill="url(&quot;#SvgjsLinearGradient5519&quot;)"></rect><path d="M1440 0L727.18 0L1440 150.45z" fill="rgba(255, 255, 255, .1)"></path><path d="M727.18 0L1440 150.45L1440 279.77L362.2099999999999 0z" fill="rgba(255, 255, 255, .075)"></path><path d="M362.21000000000004 0L1440 279.77L1440 442.15999999999997L148.73000000000005 0z" fill="rgba(255, 255, 255, .05)"></path><path d="M148.73000000000002 0L1440 442.15999999999997L1440 495.88L102.03000000000002 0z" fill="rgba(255, 255, 255, .025)"></path><path d="M0 560L124.05 560L0 356.48z" fill="rgba(0, 0, 0, .1)"></path><path d="M0 356.48L124.05 560L362.16 560L0 301.64z" fill="rgba(0, 0, 0, .075)"></path><path d="M0 301.64L362.16 560L675.1 560L0 240.57999999999998z" fill="rgba(0, 0, 0, .05)"></path><path d="M0 240.57999999999998L675.1 560L851.71 560L0 91.99999999999997z" fill="rgba(0, 0, 0, .025)"></path></g><defs><mask id="SvgjsMask5518"><rect width="1440" height="560" fill="#ffffff"></rect></mask><linearGradient x1="15.28%" y1="-39.29%" x2="84.72%" y2="139.29%" gradientUnits="userSpaceOnUse" id="SvgjsLinearGradient5519"><stop stop-color="rgba(19, 90, 164, 1)" offset="0.02"></stop><stop stop-color="rgba(23, 136, 255, 1)" offset="1"></stop></linearGradient></defs></svg>